<!-- icon666.com - MILLIONS OF FREE VECTOR ICONS --><svg id="Layer_1" viewBox="0 0 512 512" xmlns="http://www.w3.org/2000/svg" data-name="Layer 1"><path d="m492.458 169.816c-2.058-.917-6.084 1.948-10.46 10.411-6.188 11.975-15.632 17.2-28.049 15.533-10.1-1.355-20.924-6.943-32.384-12.858-4.009-2.07-8.154-4.21-12.235-6.138a52.147 52.147 0 0 0 -41.023-1.61 16.488 16.488 0 0 1 -11.3.269c-8.251-2.8-29.932-8.28-53 1.418-18.617 7.826-37.019 10.048-49.583 10.491a46.293 46.293 0 0 0 -16.5 3.7l-.693.295a69.516 69.516 0 0 0 -2.641-6.936c-.074-.133-.131-.275-.193-.416-5.977-12.95-12.826-12.584-22.511-12.046-6.345.353-13.54.751-20.9-2.79-9.095-4.377-30.13-7.4-59.23-8.507-16.789-.64-27.965 2.514-34.192 9.639-5.758 6.589-5.868 6.942-6.928 10.328-.5 1.582-1.172 3.747-2.439 7-3.4 8.748-4.766 10.185-10.877 14.333l-.165.112c-1.27.861-3.348 2.686-3.014 5.228.317 2.408 2.944 5.777 9.366 8.012 2.751.957 3.66 3.454 4.323 5.277l.007.018a2.341 2.341 0 0 0 3.3 1.274 26.3 26.3 0 0 0 3.22-2.1c5.507-4.1 15.769-5.139 26.143-2.636 11.007 2.656 19.248 8.555 23.206 16.61a146.89 146.89 0 0 1 5.882 13.753c2.068 5.44 3.11 8.176 6.945 11.42 1.292-28.755 15.1-58.563 15.827-60.1a5 5 0 0 1 9.054 4.247c-.2.436-20.318 43.877-13.622 73.419a5 5 0 0 1 -1.752 5.009l-71.14 56.925a11.672 11.672 0 0 1 -7.056 2.55c-3.9.068-13.7.836-20.519 6.486a1.63 1.63 0 0 0 .984 2.883l28.4 1.125a1.627 1.627 0 0 0 1.094-.362c9.28-7.554 32.527-25.538 47.972-29.393 13.835-3.453 46.233-11.541 53.518-50.356a96.05 96.05 0 0 1 6.013-20.165l3.212-7.476a5.145 5.145 0 0 1 6.193-2.989 5 5 0 0 1 3.08 6.74l-3.3 7.672a86.108 86.108 0 0 0 -5.373 18.063c-.095.5-.212.98-.314 1.475 11.974 1.63 43.331 3.47 67.576-16.6a97.44 97.44 0 0 1 42.3-20.745 87.544 87.544 0 0 1 14.194-1.489c-5.18-4.213-8.859-6.668-8.959-6.734a5 5 0 0 1 5.5-8.351c1.205.793 29.645 19.72 42.326 45.483 5.589 11.36 16.343 8.46 33.387 2.338 8.712-3.13 16.943-6.084 23.962-5.08 8.91 1.276 14.372 9.049 19.656 16.567 6.134 8.729 12.478 17.756 24.375 18.912a13.451 13.451 0 0 0 8.879-2.045c1.592-1.084 2.393-2.172 2.38-3.234-.014-1.263-1.1-6.061-14.5-14.742-12.233-7.929-17.182-17.959-20.8-25.282-2-4.047-3.72-7.543-5.539-8.068-1.364-.393-5.091.174-8.088.631-7.546 1.148-17.879 2.72-25.506-3.225-4.992-3.89-7.956-10.387-8.814-19.31a46.213 46.213 0 0 0 -10.433-25.234 7.362 7.362 0 0 1 -.559-8.608 7.727 7.727 0 0 1 8.055-3.361c7.092 1.345 18.345 4.874 32.253 14.013 12.786 8.4 24.891 10.846 35.986 7.262 17.291-5.588 27.462-24.137 29.239-28.8 1.103-2.886-.702-8.01-3.216-9.135zm-343.98 28.5a5 5 0 1 1 -7.672-6.415c8.6-10.29 7.364-13.472 7.348-13.5-.971-1.624-8.644-2.27-16.22-.709a5 5 0 0 1 -2.034-9.792c4.927-1.026 21.421-3.67 26.832 5.36 4.751 7.931-2.432 18.099-8.254 25.058z"></path><path d="m354.537 257.637a116.81 116.81 0 0 0 -9.568-10.878c-4.86-1.4-15.913-1.3-24 .3 5.131 5.828 15.721 13.864 33.568 10.578z"></path><path d="m144.735 260.651a47.268 47.268 0 0 1 -4.5-9.619 138.42 138.42 0 0 0 -5.51-12.9 15 15 0 0 0 -.767-1.352c-9.186 5.01-33.8 18.192-52.064 25.722-17.243 7.11-17.243 7.11-43.389 23.377-13.565 8.44-19.656 19.217-22.378 26.771a2.05 2.05 0 0 0 .425 2.125 2.222 2.222 0 0 0 2.2.7l15.608-3.666a4.418 4.418 0 0 0 2.262-1.356c3.09-3.415 31.318-33.457 70.157-36.755 21.111-1.788 32.966-8.338 37.956-13.047z"></path><path d="m428.348 287.2a2 2 0 0 0 3.385 1.65c2.171-2.1 4.465-4.223 6.644-6.137-3.552-4.915-6.85-8.782-10.7-9.334a16.289 16.289 0 0 0 -5.046.263c3.63 3.267 6.648 7.675 5.786 12.972-.027.192-.049.386-.069.586z"></path></svg>